<svg width="40" height="40" viewBox="0 0 40 40" fill="none" xmlns="http://www.w3.org/2000/svg">
<rect width="40" height="40" rx="7" fill="#3A3A66"/>
<path fill-rule="evenodd" clip-rule="evenodd" d="M23.7287 12.6149L23.7295 13.2146C25.9332 13.3873 27.3889 14.889 27.3913 17.1918L27.4 23.9324C27.4031 26.4432 25.8258 27.988 23.2974 27.992L17.1215 28C14.609 28.0032 13.0119 26.4216 13.0087 23.9036L13 17.2422C12.9968 14.9241 14.4012 13.4265 16.6049 13.2242L16.6041 12.6245C16.6034 12.2727 16.864 12.008 17.2116 12.008C17.5591 12.0072 17.8197 12.2711 17.8205 12.6229L17.8213 13.1826L22.5131 13.1762L22.5123 12.6165C22.5115 12.2647 22.7722 12.0008 23.1197 12C23.4594 11.9992 23.7279 12.2631 23.7287 12.6149ZM14.2172 17.4892L26.1757 17.4733V17.1934C26.1417 15.4743 25.2792 14.5723 23.7311 14.438L23.7319 15.0537C23.7319 15.3975 23.4641 15.6702 23.1245 15.6702C22.7769 15.671 22.5155 15.3991 22.5155 15.0553L22.5147 14.4076L17.8229 14.414L17.8237 15.0609C17.8237 15.4055 17.5638 15.6774 17.2163 15.6774C16.8688 15.6782 16.6073 15.4071 16.6073 15.0625L16.6065 14.4468C15.0663 14.6011 14.214 15.5062 14.2164 17.2406L14.2172 17.4892ZM22.7919 21.1234V21.1322C22.7998 21.5 23.1 21.7791 23.4641 21.7711C23.8195 21.7623 24.1031 21.4577 24.0952 21.0898C24.0786 20.738 23.7935 20.451 23.4388 20.4518C23.0755 20.4598 22.7911 20.7556 22.7919 21.1234ZM23.4444 24.7136C23.081 24.7056 22.788 24.4026 22.7872 24.0348C22.7793 23.667 23.0707 23.3623 23.4341 23.3535H23.442C23.8132 23.3535 24.1142 23.6566 24.1142 24.0324C24.1149 24.4082 23.8148 24.7128 23.4444 24.7136ZM19.5377 21.1362C19.5535 21.504 19.8544 21.7911 20.2178 21.7751C20.5732 21.7583 20.8568 21.4544 20.841 21.0866C20.8323 20.7268 20.54 20.447 20.1846 20.4478C19.8213 20.4637 19.5369 20.7684 19.5377 21.1362ZM20.2209 24.6777C19.8576 24.6936 19.5574 24.4066 19.5409 24.0388C19.5409 23.671 19.8244 23.3671 20.1878 23.3503C20.5432 23.3495 20.8362 23.6294 20.8441 23.9884C20.8607 24.357 20.5764 24.6609 20.2209 24.6777ZM16.2835 21.1642C16.2993 21.532 16.6002 21.8199 16.9635 21.8031C17.319 21.7871 17.6025 21.4825 17.5859 21.1146C17.578 20.7548 17.2858 20.475 16.9296 20.4758C16.5662 20.4917 16.2827 20.7964 16.2835 21.1642ZM16.9667 24.6817C16.6034 24.6984 16.3032 24.4106 16.2866 24.0428C16.2858 23.675 16.5702 23.3703 16.9335 23.3543C17.289 23.3535 17.582 23.6334 17.5899 23.9932C17.6065 24.361 17.3229 24.6657 16.9667 24.6817Z" fill="white"/>
</svg>
