<svg width="40" height="40" viewBox="0 0 40 40" fill="none" xmlns="http://www.w3.org/2000/svg">
<path d="M20.3188 39.5529C19.5919 39.9656 18.9508 39.7397 18.2817 39.3526C8.19889 33.5199 2.10273 24.8987 0.173469 13.3966C-0.0954641 11.7938 -0.0931664 10.1393 0.478707 8.55535C0.907872 7.36737 1.67065 6.61961 3.00926 6.62504C3.21852 6.68492 3.42778 6.7448 3.63705 6.80468C4.34912 7.13161 4.78622 7.75919 5.28799 8.31583C5.7641 9.31186 6.2738 10.2935 6.70901 11.3073C7.55399 13.2753 8.26962 15.302 9.29256 17.1891C10.3318 19.1067 11.4405 20.9818 13.4294 22.1082L13.4215 22.0817C13.4229 22.2277 13.5216 22.2613 13.6405 22.2716L13.6577 22.3339L13.7213 22.3448L13.709 22.3406C13.9472 22.475 14.178 22.625 14.4244 22.7418C17.0589 23.9892 20.527 23.5294 22.2906 21.7039C22.8621 21.2308 23.3261 20.6705 23.6683 20.011C24.6109 18.804 25.1108 17.3604 25.7705 16.0068C26.8447 13.803 29.2931 13.2887 30.6747 15.629C30.8385 16.4416 31.0486 17.2488 30.972 18.0909C30.3586 24.839 26.9374 30.0255 21.9355 34.3332C21.5506 34.6648 21.1736 34.5661 20.7903 34.3422C20.5082 33.7236 20.7718 33.3339 21.2595 32.9258C24.5497 30.1745 26.9324 26.7641 28.4456 22.7594C29.1222 20.9692 29.6501 19.127 29.4496 17.1779C29.3862 16.5595 29.2265 15.8439 28.5076 15.7001C27.8099 15.5607 27.4888 16.1879 27.2168 16.7089C26.5107 18.0606 25.8844 19.4564 25.1348 20.7827C24.0536 22.6959 22.4957 24.0545 20.3226 24.6491C16.0998 25.8046 12.0215 24.191 9.32386 20.253C7.6629 17.8286 6.62264 15.1007 5.52313 12.403C5.03867 11.2148 4.59699 10.0037 3.83129 8.95635C3.54608 8.5662 3.22708 8.13849 2.65437 8.25491C2.09189 8.36924 1.93082 8.87999 1.8073 9.34358C1.4908 10.533 1.50227 11.7464 1.63768 12.9618C2.14571 17.529 3.80876 21.698 6.16385 25.5884C8.68543 29.7539 11.8413 33.3652 15.9516 36.0653C16.527 36.5323 17.1079 36.9907 17.8095 37.2611C18.7012 38.0372 19.5352 38.2414 20.6597 37.4987C25.3764 34.3843 29.4961 30.6716 32.6292 25.9369C35.4965 21.6033 37.1764 16.9016 36.8249 11.6248C36.5831 7.99537 33.6031 4.72582 30.3112 4.40828C29.942 4.17877 29.5314 4.15269 29.1116 4.15749C25.6084 4.20006 23.2351 6.0346 21.5299 8.93089C21.2637 9.41472 20.9937 9.89667 20.7319 10.3828C20.5331 10.7523 20.3628 11.1669 19.84 11.1224C19.3334 11.0792 19.1805 10.6964 19.067 10.2687C18.6906 8.8514 18.1628 7.48713 17.3451 6.26869C15.7013 3.81825 13.6103 1.98955 10.5302 1.63403C7.62764 1.17503 5.44843 2.34715 3.75722 4.62922C3.45282 5.03961 3.28007 5.5564 2.80166 5.82846C1.78769 5.54326 1.64498 5.19108 2.17492 4.28351C4.66834 0.014801 9.96437 -1.25016 14.4035 1.33819C16.4323 2.52116 17.8999 4.25576 19.2585 6.11013C19.3397 6.22091 19.3981 6.34838 19.4772 6.46105C20.3576 7.71746 20.3591 7.71809 21.2936 6.55139C25.2739 1.58062 31.5645 1.55308 35.4483 5.36237C35.6211 5.53178 35.8145 5.68054 35.9978 5.83848C36.0632 6.03063 36.1825 6.1723 36.3776 6.24324L36.3713 6.23489C37.2799 7.75543 38.1099 9.28787 38.3029 11.1126C38.5624 13.567 38.3152 15.9667 37.7103 18.3335C36.2576 24.0189 33.0534 28.6493 28.9806 32.7635C26.3757 35.3948 23.3789 37.5104 20.3188 39.5529Z" fill="#201F50"/>
<path d="M20.3188 39.5528C23.3789 37.5103 26.3757 35.3948 28.9806 32.7634C33.0533 28.6493 36.2576 24.0188 37.7103 18.3334C38.3152 15.9667 38.5624 13.5669 38.3029 11.1125C38.1099 9.28779 37.2799 7.75536 36.3713 6.23481C37.4001 6.28655 37.6851 7.19955 38.0873 7.85801C39.9876 10.9682 40.2156 14.3583 39.6106 17.8701C38.6853 23.2391 35.9083 27.6115 32.3788 31.623C29.4598 34.9403 26.015 37.5522 22.188 39.7089C21.4932 40.1003 20.8973 40.1425 20.3188 39.5528Z" fill="#6366F1"/>
<path d="M36.3775 6.24316C36.1825 6.17223 36.0631 6.03056 35.9978 5.83841C36.2567 5.84967 36.3919 5.97632 36.3775 6.24316Z" fill="#201F50"/>
<path d="M3.63702 6.8045C4.84795 4.36324 6.88028 2.91759 9.39623 2.06114C9.77908 1.93095 10.2133 1.93971 10.53 1.63385C13.6103 1.98937 15.7012 3.81807 17.3451 6.26851C18.1627 7.48695 18.6906 8.85122 19.067 10.2685C19.1805 10.6962 19.3334 11.079 19.84 11.1222C20.3628 11.1667 20.5331 10.7521 20.7319 10.3826C20.9937 9.89649 21.2637 9.41454 21.5301 8.9303C21.5894 9.35487 21.6897 9.80907 22.1648 9.89357C22.5591 9.96367 22.7127 9.54119 22.9144 9.27142C24.7932 6.75756 27.1314 4.94345 30.3112 4.40809C33.6031 4.72564 36.5831 7.99519 36.8249 11.6246C37.1764 16.9015 35.4965 21.6031 32.6292 25.9367C29.4961 30.6715 25.3763 34.3841 20.6597 37.4985C19.5351 38.2412 18.7012 38.037 17.8095 37.2609C17.8581 36.8363 18.1855 36.7364 18.5212 36.6053C19.3891 36.2661 20.2506 35.9089 21.1047 35.5363C25.9922 33.4041 29.0638 29.5774 31.1387 24.8076C32.0784 22.6473 32.5808 20.4222 32.4531 18.0536C32.3732 16.5768 32.064 16.0924 30.6747 15.629C29.2931 13.2885 26.8447 13.8028 25.7705 16.0066C25.1107 17.3603 24.6109 18.8038 23.6682 20.0108C23.7375 19.643 23.7642 19.2608 23.8838 18.9102C24.3336 17.59 23.894 16.4258 23.1016 15.451C22.4752 14.6807 21.7834 13.7435 20.503 14.1358C20.3645 14.0373 20.2239 13.9413 20.0872 13.8395C18.6434 12.7632 17.0839 12.6042 15.5022 13.4241C13.9574 14.2247 13.1966 15.5668 13.2316 17.3202C13.2754 19.5107 14.5462 20.8368 17.2174 21.51C17.6507 21.7053 18.0774 21.9171 18.5185 22.0921C19.84 22.6175 21.0569 22.0665 22.2906 21.7037C20.527 23.5293 17.0588 23.9891 14.4244 22.7417C14.178 22.6248 13.9472 22.4748 13.7094 22.3408C13.71 22.3412 13.7213 22.3446 13.7213 22.3446L13.6576 22.3337C13.6576 22.3337 13.6405 22.2714 13.6407 22.2714C13.5675 22.2081 13.4947 22.1447 13.4215 22.0815L13.4294 22.108C13.3553 21.9177 13.3226 21.6947 13.2009 21.5426C11.0449 18.8422 9.66579 15.7246 8.35117 12.5704C7.92618 11.5508 7.51287 10.5239 7.02925 9.5318C6.68896 8.83349 6.22141 8.21342 5.28797 8.31565C4.7862 7.75901 4.3491 7.13143 3.63702 6.8045Z" fill="#6366F1"/>
<path d="M15.9516 36.0652C11.8412 33.3651 8.68541 29.7538 6.16382 25.5883C3.80873 21.6979 2.14569 17.5289 1.63766 12.9616C1.50225 11.7463 1.49078 10.5329 1.80728 9.34346C1.93079 8.87987 2.09186 8.36912 2.65435 8.25479C3.22705 8.13837 3.54606 8.56608 3.83126 8.95623C4.59696 10.0036 5.03865 11.2147 5.5231 12.4029C6.62262 15.1006 7.66288 17.8285 9.32383 20.2529C12.0215 24.1909 16.0997 25.8045 20.3225 24.649C22.4957 24.0544 24.0536 22.6958 25.1347 20.7825C25.8844 19.4562 26.5107 18.0605 27.2167 16.7087C27.4888 16.1878 27.8099 15.5606 28.5076 15.7C29.2265 15.8437 29.3861 16.5594 29.4496 17.1778C29.6501 19.1268 29.1222 20.9691 28.4456 22.7592C26.9324 26.764 24.5497 30.1744 21.2595 32.9257C20.7717 33.3338 20.5082 33.7235 20.7903 34.3421C19.9318 34.7593 19.126 35.2649 18.236 35.6429C17.468 35.969 16.6393 35.5837 15.9516 36.0652Z" fill="#886BDF"/>
<path d="M15.4282 18.8255C15.4711 19.1149 15.6577 19.2899 15.9016 19.4191C17.0349 20.1305 18.0979 20.158 19.0624 19.4491C20.0148 18.7491 20.3712 17.7894 20.1425 16.6302C19.9155 15.4785 19.2036 14.8115 17.9998 14.5866C17.7248 14.5866 17.4496 14.5864 17.1742 14.5862C16.0426 14.5146 15.3816 15.1965 14.9871 16.1101C14.5752 17.0635 14.5392 18.0418 15.4282 18.8255ZM19.0655 21.2565C18.8548 21.2991 18.6439 21.3416 18.4334 21.3842C18.3693 21.3996 18.3053 21.4151 18.2412 21.4305C17.8999 21.457 17.5585 21.4835 17.2174 21.51C14.5462 20.8367 13.2754 19.5107 13.2316 17.3202C13.1966 15.5668 13.9575 14.2246 15.5022 13.4241C17.0839 12.6041 18.6435 12.7631 20.0872 13.8395C20.2239 13.9413 20.3645 14.0373 20.503 14.1357C20.7292 14.4203 20.9556 14.7051 21.1815 14.9899C21.5677 15.9181 21.8779 16.8386 21.695 17.8906C21.4144 19.5042 20.3904 20.4851 19.0655 21.2565Z" fill="#2A2960"/>
<path d="M19.0656 21.2567C20.3904 20.4853 21.4144 19.5044 21.695 17.8908C21.878 16.8388 21.5677 15.9183 21.1815 14.9901C22.5944 15.9434 23.1868 17.3502 22.7686 18.7595C22.2904 20.3719 21.1477 21.3135 19.5193 21.4361C19.3393 21.4495 19.1778 21.4147 19.0656 21.2567Z" fill="#886BDF"/>
<path d="M18.2411 21.4307C18.3052 21.4152 18.3693 21.3998 18.4333 21.3843C18.369 21.3998 18.305 21.4152 18.2411 21.4307Z" fill="#9BD7F1"/>
<path d="M17.9996 14.5867C19.2037 14.8116 19.9155 15.4787 20.1425 16.6303C20.3712 17.7895 20.0148 18.7492 19.0624 19.4492C18.0979 20.1581 17.0349 20.1306 15.9014 19.4192C16.1901 19.2405 16.0265 19.0144 15.9829 18.7866C15.7599 17.6161 15.9877 16.5375 16.7753 15.6351C17.1248 15.2346 17.588 14.9331 17.9996 14.5867Z" fill="#886BDF"/>
<path d="M15.4281 18.8257C14.5391 18.042 14.5752 17.0637 14.9871 16.1103C15.3816 15.1967 16.0426 14.5148 17.1744 14.5866C15.7555 15.6548 15.4943 17.2002 15.4281 18.8257Z" fill="#6366F1"/>
</svg>
