<svg width="40" height="40" viewBox="0 0 40 40" fill="none" xmlns="http://www.w3.org/2000/svg">
<rect width="40" height="40" rx="7" fill="#3A3A66"/>
<path fill-rule="evenodd" clip-rule="evenodd" d="M13 18.6542C13 14.9743 16.0751 12 19.7948 12C23.5249 12 26.6 14.9743 26.6 18.6542C26.6 20.5086 25.9256 22.2301 24.8156 23.6893C23.591 25.2988 22.0817 26.7012 20.3828 27.8019C19.994 28.0563 19.6431 28.0755 19.2164 27.8019C17.5078 26.7012 15.9985 25.2988 14.7844 23.6893C13.6736 22.2301 13 20.5086 13 18.6542ZM17.5554 18.8614C17.5554 20.0942 18.5613 21.0637 19.7947 21.0637C21.029 21.0637 22.0446 20.0942 22.0446 18.8614C22.0446 17.6382 21.029 16.6215 19.7947 16.6215C18.5613 16.6215 17.5554 17.6382 17.5554 18.8614Z" fill="white"/>
</svg>
