<svg width="145" height="31" viewBox="0 0 145 31" fill="none" xmlns="http://www.w3.org/2000/svg">
<path d="M0.195129 1.97192V2.75317C2.57794 2.75317 3.76935 3.94458 3.76935 6.32739V26.0344C3.76935 28.4823 2.57794 29.7063 0.195129 29.7063V30.3899H8.18341V29.7454C5.81362 29.7193 4.63523 28.4823 4.64825 26.0344V5.05786L16.0545 30.3508H17.4803L27.8709 5.05786V26.0344C27.8709 28.4172 26.6665 29.6151 24.2576 29.6282V30.3899H36.3475V29.6282C33.9647 29.6282 32.7732 28.4303 32.7732 26.0344V6.32739C32.7732 3.94458 33.9647 2.75317 36.3475 2.75317V1.97192L28.2029 1.95239L19.0623 24.3743L9.96075 3.86645C9.67429 3.21541 9.51804 2.57739 9.492 1.95239L0.195129 1.97192Z" fill="#201F50"/>
<path d="M47.2654 10.1555C44.4008 10.1555 42.0571 11.1777 40.2342 13.2219C38.4373 15.2141 37.5389 17.6946 37.5389 20.6633C37.5389 23.5279 38.4373 25.9237 40.2342 27.8508C42.0701 29.8039 44.2902 30.7805 46.8943 30.7805C49.2511 30.7805 51.2824 30.0448 52.9881 28.5735C54.7068 27.0891 55.8331 25.0383 56.367 22.4211H55.742C55.1821 24.2961 54.3357 25.8066 53.2029 26.9524C52.0701 28.0982 50.6704 28.6907 49.0037 28.7297C47.0766 28.7818 45.4686 27.9159 44.1795 26.1321C42.8904 24.3352 42.3305 22.1868 42.4998 19.6868H56.6209C56.4907 16.7961 55.6053 14.4849 53.9646 12.7532C52.3501 11.0214 50.117 10.1555 47.2654 10.1555ZM47.1678 11.0344C48.1964 10.9954 49.0753 11.4641 49.8045 12.4407C50.5467 13.4042 51.035 14.4524 51.2693 15.5852C51.5298 16.705 51.6404 17.7532 51.6014 18.7297H42.5584C42.6105 17.9615 42.7212 17.1803 42.8904 16.386C43.0597 15.5657 43.3136 14.7519 43.6522 13.9446C43.9907 13.1112 44.4594 12.4276 45.0584 11.8938C45.6834 11.3469 46.3865 11.0605 47.1678 11.0344Z" fill="#201F50"/>
<path d="M73.2615 30.8586L80.0193 29.218V28.5539C78.1443 28.8664 77.2003 27.9094 77.1873 25.6829V0.800049L69.8436 1.97192V2.67505C71.6404 2.32349 72.5389 3.27401 72.5389 5.52661V12.2258C70.8852 10.9758 68.9842 10.3248 66.8357 10.2727C64.3748 10.2727 62.3305 11.2428 60.7029 13.1829C59.0363 15.1099 58.2029 17.649 58.2029 20.8C58.2029 23.9381 58.9646 26.3925 60.4881 28.1633C62.0245 29.9342 64.0688 30.8196 66.6209 30.8196C68.7042 30.8196 70.6769 30.0513 72.5389 28.5149C72.63 29.6868 72.8709 30.468 73.2615 30.8586ZM68.1834 11.6594C69.0167 11.6594 69.8436 11.8938 70.6639 12.3625C71.4712 12.8183 72.0962 13.3326 72.5389 13.9055V24.3743C72.5389 25.8326 72.0962 27.0435 71.2107 28.0071C70.3123 28.8925 69.3683 29.3743 68.3787 29.4524C66.8162 29.5305 65.5011 28.6907 64.4334 26.9329C63.3917 25.2011 62.8774 23.0071 62.8904 20.3508C62.8904 17.7206 63.3462 15.6178 64.2576 14.0422C65.2081 12.4407 66.5167 11.6464 68.1834 11.6594Z" fill="#201F50"/>
<path d="M81.2107 12.05C83.0337 11.7245 83.9386 12.636 83.9256 14.7844V25.7219C83.9386 28.287 83.0337 29.6151 81.2107 29.7063V30.3899H91.4061V29.7063C89.6092 29.6021 88.7042 28.274 88.6912 25.7219V10.2727L81.2107 11.3665V12.05ZM88.1248 2.26489C87.617 1.705 86.979 1.42505 86.2107 1.42505C85.4555 1.42505 84.8045 1.69198 84.2576 2.22583C83.7107 2.74666 83.4373 3.40421 83.4373 4.19849C83.4373 4.99276 83.7107 5.65682 84.2576 6.19067C84.8045 6.72453 85.4555 6.99145 86.2107 6.99145C86.979 6.99145 87.6235 6.72453 88.1443 6.19067C88.6782 5.65682 88.9451 4.99276 88.9451 4.19849C88.9451 3.40421 88.6717 2.75968 88.1248 2.26489Z" fill="#201F50"/>
<path d="M100.078 0.839111L92.5779 1.97192V2.65552C94.4399 2.31698 95.3709 3.27401 95.3709 5.52661V25.5657C95.3709 28.3 94.4399 29.6868 92.5779 29.7258V30.3899H102.91V29.7258C101.035 29.6998 100.091 28.3131 100.078 25.5657V22.5383L102.676 20.0383L106.582 26.0735C107.415 27.3886 107.663 28.3066 107.324 28.8274C107.012 29.3482 106.497 29.6477 105.781 29.7258V30.3899H116.406V29.7258C114.909 29.856 113.502 28.8274 112.187 26.6399L106.094 16.6985L108.496 14.2961C110.345 12.343 112.689 11.3665 115.527 11.3665V10.7024H106.738V11.3665C107.623 11.3274 108.164 11.5618 108.359 12.0696C108.554 12.5644 108.125 13.3326 107.07 14.3743L100.078 21.2688V0.839111Z" fill="#201F50"/>
<path d="M124.179 10.1555C121.315 10.1555 118.971 11.1777 117.148 13.2219C115.351 15.2141 114.453 17.6946 114.453 20.6633C114.453 23.5279 115.351 25.9237 117.148 27.8508C118.984 29.8039 121.204 30.7805 123.808 30.7805C126.165 30.7805 128.196 30.0448 129.902 28.5735C131.621 27.0891 132.747 25.0383 133.281 22.4211H132.656C132.096 24.2961 131.25 25.8066 130.117 26.9524C128.984 28.0982 127.584 28.6907 125.918 28.7297C123.991 28.7818 122.383 27.9159 121.094 26.1321C119.804 24.3352 119.245 22.1868 119.414 19.6868H133.535C133.405 16.7961 132.519 14.4849 130.879 12.7532C129.264 11.0214 127.031 10.1555 124.179 10.1555ZM124.082 11.0344C125.11 10.9954 125.989 11.4641 126.719 12.4407C127.461 13.4042 127.949 14.4524 128.183 15.5852C128.444 16.705 128.554 17.7532 128.515 18.7297H119.472C119.525 17.9615 119.635 17.1803 119.804 16.386C119.974 15.5657 120.228 14.7519 120.566 13.9446C120.905 13.1112 121.373 12.4276 121.972 11.8938C122.597 11.3469 123.301 11.0605 124.082 11.0344Z" fill="#201F50"/>
<path d="M142.265 10.1946V0.839111L134.726 1.97192V2.67505C136.64 2.32349 137.578 3.27401 137.539 5.52661V25.5657C137.539 28.3 136.601 29.6868 134.726 29.7258V30.3899H145V29.7258C143.177 29.6868 142.265 28.3 142.265 25.5657V10.1946Z" fill="#201F50"/>
</svg>
